<svg width="278" height="355" viewBox="0 0 278 355" fill="none" xmlns="http://www.w3.org/2000/svg">
<g clip-path="url(#clip0_42388_12696)">
<path d="M107.508 191.418C87.5954 198.722 66.1815 200.941 45.1993 197.874C44.5348 197.795 43.8928 197.705 43.2508 197.592C37.4877 196.656 31.7971 195.317 26.2207 193.585C30.5694 177.017 38.4293 161.582 49.2654 148.332C50.2791 148.535 51.304 148.716 52.3515 148.863C65.1831 150.733 78.2773 149.375 90.4551 144.912L107.508 191.418Z" fill="#FFC1C1"/>
<path d="M49.2659 148.332L26.1987 193.585C24.4191 193.028 22.6433 192.441 20.8712 191.824C20.2307 193.031 19.3594 194.099 18.307 194.968C17.2545 195.837 16.0415 196.49 14.7373 196.889C13.4331 197.289 12.0631 197.427 10.7057 197.296C9.34827 197.164 8.02991 196.766 6.82592 196.125L5.49684 195.425C4.11821 194.687 2.92146 193.649 1.99397 192.388L1.57723 191.768C1.44387 191.565 1.32348 191.354 1.2168 191.135C4.59578 183.539 8.7294 175.389 13.6064 166.889C18.535 158.269 23.9035 149.909 29.6903 141.842C31.729 142.846 33.9704 143.828 49.2659 148.332Z" fill="#FFCC00"/>
<path d="M29.6891 141.842L1.2381 191.136C0.936979 190.573 0.688136 189.983 0.494723 189.375C0.427144 189.16 0.370832 188.957 0.314516 188.743C-0.338119 186.161 0.0333091 183.426 1.35074 181.112L23.607 141.605C23.953 140.991 24.5261 140.538 25.2025 140.344C25.8789 140.149 26.6044 140.229 27.2225 140.567C28.0334 141.041 28.8556 141.458 29.6891 141.842Z" fill="#FFCC00"/>
<path d="M134.517 227.866L174.479 228.239L183.693 262.542L183.456 293.38C167.083 296.025 150.394 296.025 134.021 293.38C134.194 271.55 134.359 249.712 134.517 227.866Z" fill="#FFC1C1"/>
<path d="M193.909 312.061C193.919 312.117 193.919 312.174 193.909 312.23C193.869 312.531 193.812 312.828 193.74 313.122C193.638 313.427 193.571 313.732 193.458 314.014C193.394 314.211 193.315 314.404 193.222 314.59C193.199 314.689 193.161 314.784 193.109 314.872C193.017 315.104 192.904 315.327 192.771 315.538C192.65 315.792 192.511 316.037 192.354 316.271C183.715 317.084 174.333 317.615 164.196 317.649C153.26 317.649 143.111 317.141 133.887 316.271C133.887 312.817 133.943 309.363 133.966 305.909L134.056 293.38H183.49V299.024C183.862 299.08 184.222 299.137 184.616 299.227C185.302 299.367 185.973 299.571 186.621 299.836L187.162 300.085C187.382 300.183 187.596 300.292 187.804 300.412C188.436 300.729 189.036 301.107 189.595 301.541C190.179 301.976 190.708 302.48 191.172 303.042C191.397 303.291 191.611 303.55 191.814 303.821L192.332 304.543C192.591 304.961 192.816 305.379 193.03 305.808C193.169 306.093 193.289 306.387 193.391 306.688C193.462 306.844 193.518 307.007 193.559 307.174C193.652 307.428 193.727 307.688 193.785 307.952C193.8 308.046 193.8 308.141 193.785 308.235C193.854 308.489 193.899 308.75 193.92 309.013C194.079 310.023 194.075 311.052 193.909 312.061Z" fill="#FFCC00"/>
<path d="M192.309 316.271C192.137 316.543 191.949 316.803 191.745 317.05C191.653 317.185 191.551 317.313 191.441 317.434C191.131 317.838 190.788 318.215 190.416 318.563C190.168 318.789 189.921 318.992 189.639 319.229C189.362 319.441 189.072 319.637 188.772 319.816C188.524 319.985 188.276 320.132 188.028 320.267C186.549 321.078 184.92 321.577 183.242 321.735C167.668 321.629 152.087 321.513 136.499 321.385C135.786 321.379 135.104 321.091 134.602 320.583C134.1 320.076 133.818 319.39 133.818 318.676V316.317L192.309 316.271Z" fill="#FFCC00"/>
<path d="M91.0974 144.404L60.8555 149.631L68.1653 216.059C68.2222 216.56 68.3785 217.045 68.6252 217.485C68.8719 217.925 69.2039 218.311 69.6017 218.62C69.9995 218.929 70.4551 219.156 70.9415 219.286C71.4279 219.416 71.9355 219.447 72.4341 219.378L109.062 214.163L115.392 220.269L113.083 257.587C113.051 258.095 113.123 258.605 113.293 259.085C113.464 259.565 113.73 260.005 114.075 260.379C114.421 260.752 114.838 261.052 115.303 261.259C115.768 261.466 116.269 261.576 116.778 261.583L183.738 262.542L184.064 228.498C169.394 210.367 153.19 193.538 135.632 178.2C121.58 165.922 106.7 154.63 91.0974 144.404Z" fill="#2A63E8"/>
<path d="M129.54 185.65C128.83 186.397 127.915 186.917 126.911 187.143C125.907 187.369 124.858 187.292 123.898 186.92C122.937 186.549 122.108 185.901 121.516 185.058C120.923 184.214 120.593 183.214 120.568 182.183C120.543 181.151 120.823 180.136 121.374 179.264C121.925 178.393 122.721 177.705 123.662 177.287C124.603 176.869 125.647 176.74 126.661 176.917C127.675 177.093 128.614 177.567 129.359 178.279C130.358 179.233 130.938 180.545 130.972 181.927C131.006 183.309 130.491 184.648 129.54 185.65Z" fill="#FFCC00"/>
<path d="M105.413 160.992C106.865 158.506 106.033 155.312 103.553 153.856C101.073 152.4 97.8854 153.235 96.4328 155.72C94.9803 158.205 95.813 161.4 98.2928 162.856C100.773 164.311 103.96 163.477 105.413 160.992Z" fill="#FFCC00"/>
<path d="M99.0943 179.487C99.8039 178.739 100.719 178.22 101.723 177.994C102.727 177.767 103.776 177.845 104.736 178.216C105.696 178.587 106.525 179.235 107.118 180.079C107.711 180.922 108.041 181.923 108.066 182.954C108.091 183.985 107.811 185.001 107.26 185.872C106.709 186.744 105.913 187.432 104.972 187.85C104.031 188.267 102.987 188.396 101.973 188.22C100.959 188.043 100.02 187.569 99.2745 186.857C98.2756 185.904 97.6955 184.592 97.6617 183.209C97.6279 181.827 98.1432 180.488 99.0943 179.487Z" fill="#FFCC00"/>
<path d="M72.3775 153.976C73.0871 153.229 74.0019 152.709 75.0061 152.483C76.0104 152.257 77.059 152.335 78.0193 152.706C78.9797 153.077 79.8086 153.725 80.4013 154.569C80.994 155.412 81.3238 156.412 81.3491 157.444C81.3743 158.475 81.0938 159.49 80.543 160.362C79.9922 161.233 79.1959 161.921 78.2549 162.339C77.3138 162.757 76.2702 162.886 75.2561 162.709C74.242 162.533 73.303 162.059 72.5577 161.347C71.5588 160.394 70.9787 159.081 70.9449 157.699C70.9111 156.317 71.4264 154.978 72.3775 153.976Z" fill="#FFCC00"/>
<path d="M106.707 209.67C105.998 210.417 105.083 210.937 104.079 211.163C103.075 211.389 102.026 211.312 101.066 210.94C100.105 210.569 99.2763 209.921 98.6836 209.078C98.091 208.234 97.7611 207.234 97.7359 206.203C97.7107 205.171 97.9912 204.156 98.542 203.284C99.0928 202.413 99.8891 201.725 100.83 201.307C101.771 200.889 102.815 200.76 103.829 200.937C104.843 201.113 105.782 201.587 106.527 202.299C107.526 203.253 108.106 204.565 108.14 205.947C108.174 207.329 107.659 208.668 106.707 209.67Z" fill="#FFCC00"/>
<path d="M81.2877 182.438C81.6038 179.586 79.5537 177.018 76.7085 176.701C73.8634 176.384 71.3006 178.439 70.9845 181.29C70.6684 184.142 72.7186 186.71 75.5637 187.027C78.4089 187.344 80.9716 185.289 81.2877 182.438Z" fill="#FFCC00"/>
<path d="M80.1323 212.328C83.0053 212.258 85.2779 209.868 85.2082 206.988C85.1385 204.109 82.7529 201.831 79.8798 201.901C77.0068 201.971 74.7342 204.362 74.804 207.241C74.8737 210.121 77.2593 212.398 80.1323 212.328Z" fill="#FFCC00"/>
<path d="M179.233 233.115C178.523 233.862 177.609 234.382 176.604 234.608C175.6 234.834 174.551 234.756 173.591 234.385C172.631 234.014 171.802 233.366 171.209 232.523C170.616 231.679 170.287 230.679 170.261 229.647C170.236 228.616 170.517 227.601 171.067 226.729C171.618 225.858 172.414 225.17 173.355 224.752C174.297 224.334 175.34 224.205 176.354 224.382C177.368 224.558 178.307 225.032 179.053 225.744C180.052 226.698 180.632 228.01 180.665 229.392C180.699 230.774 180.184 232.113 179.233 233.115Z" fill="#FFCC00"/>
<path d="M154.385 209.376C153.676 210.124 152.761 210.643 151.757 210.869C150.752 211.096 149.704 211.018 148.743 210.647C147.783 210.276 146.954 209.628 146.361 208.784C145.769 207.941 145.439 206.94 145.414 205.909C145.388 204.878 145.669 203.862 146.22 202.991C146.771 202.119 147.567 201.431 148.508 201.013C149.449 200.596 150.492 200.467 151.507 200.643C152.521 200.82 153.46 201.294 154.205 202.006C155.204 202.959 155.784 204.271 155.818 205.654C155.852 207.036 155.336 208.375 154.385 209.376Z" fill="#FFCC00"/>
<path d="M148.788 226.952C149.497 226.205 150.412 225.685 151.416 225.459C152.421 225.233 153.469 225.31 154.429 225.681C155.39 226.052 156.219 226.701 156.811 227.544C157.404 228.387 157.734 229.388 157.759 230.419C157.784 231.45 157.504 232.466 156.953 233.337C156.402 234.209 155.606 234.897 154.665 235.315C153.724 235.733 152.68 235.862 151.666 235.685C150.652 235.508 149.713 235.034 148.968 234.323C147.969 233.369 147.389 232.057 147.355 230.675C147.321 229.293 147.837 227.953 148.788 226.952Z" fill="#FFCC00"/>
<path d="M122.071 201.441C122.78 200.694 123.695 200.174 124.699 199.948C125.704 199.722 126.752 199.799 127.713 200.171C128.673 200.542 129.502 201.19 130.095 202.033C130.687 202.877 131.017 203.877 131.042 204.909C131.068 205.94 130.787 206.955 130.236 207.827C129.686 208.698 128.889 209.386 127.948 209.804C127.007 210.222 125.964 210.351 124.949 210.174C123.935 209.998 122.996 209.524 122.251 208.812C121.252 207.858 120.672 206.546 120.638 205.164C120.604 203.782 121.12 202.443 122.071 201.441Z" fill="#FFCC00"/>
<path d="M171.764 248.906C172.474 248.159 173.389 247.64 174.393 247.414C175.397 247.187 176.446 247.265 177.406 247.636C178.366 248.007 179.195 248.655 179.788 249.499C180.381 250.342 180.711 251.343 180.736 252.374C180.761 253.405 180.48 254.421 179.93 255.292C179.379 256.163 178.583 256.852 177.642 257.269C176.701 257.687 175.657 257.816 174.643 257.639C173.629 257.463 172.69 256.989 171.944 256.277C170.946 255.324 170.365 254.012 170.332 252.629C170.298 251.247 170.813 249.908 171.764 248.906Z" fill="#FFCC00"/>
<path d="M156.391 257.146C155.681 257.894 154.767 258.413 153.762 258.639C152.758 258.866 151.71 258.788 150.749 258.417C149.789 258.046 148.96 257.398 148.367 256.554C147.775 255.711 147.445 254.71 147.42 253.679C147.394 252.648 147.675 251.632 148.226 250.761C148.776 249.889 149.573 249.201 150.514 248.783C151.455 248.366 152.498 248.237 153.512 248.413C154.527 248.59 155.466 249.064 156.211 249.776C157.21 250.729 157.79 252.041 157.824 253.424C157.857 254.806 157.342 256.145 156.391 257.146Z" fill="#FFCC00"/>
<path d="M131.543 233.442C130.834 234.189 129.919 234.709 128.915 234.935C127.911 235.161 126.862 235.084 125.902 234.712C124.941 234.341 124.112 233.693 123.52 232.85C122.927 232.006 122.597 231.006 122.572 229.975C122.547 228.943 122.827 227.928 123.378 227.056C123.929 226.185 124.725 225.497 125.666 225.079C126.607 224.661 127.651 224.532 128.665 224.709C129.679 224.885 130.618 225.359 131.363 226.071C132.362 227.025 132.942 228.337 132.976 229.719C133.01 231.101 132.495 232.44 131.543 233.442Z" fill="#FFCC00"/>
<path d="M133.481 258.162C132.771 258.909 131.857 259.429 130.852 259.655C129.848 259.881 128.799 259.804 127.839 259.433C126.879 259.062 126.05 258.413 125.457 257.57C124.864 256.727 124.535 255.726 124.509 254.695C124.484 253.664 124.765 252.648 125.315 251.777C125.866 250.905 126.662 250.217 127.604 249.799C128.545 249.381 129.588 249.252 130.602 249.429C131.616 249.606 132.555 250.08 133.301 250.791C134.3 251.745 134.88 253.057 134.913 254.439C134.947 255.821 134.432 257.161 133.481 258.162Z" fill="#FFCC00"/>
<path d="M166.067 104.886C165.695 104.638 130.621 79.545 103.488 58.7304C85.2864 44.7675 71.3087 32.238 71.3087 32.238C70.2886 31.2831 68.9317 30.7733 67.5365 30.8209C66.1414 30.8686 64.8222 31.4697 63.8693 32.492C62.9164 33.5144 62.4078 34.8742 62.4553 36.2724C62.5028 37.6706 63.1026 38.9926 64.1228 39.9476C63.1026 38.9926 61.7457 38.4828 60.3506 38.5305C58.9554 38.5781 57.6363 39.1792 56.6834 40.2015C55.7305 41.2239 55.2218 42.5837 55.2693 43.9819C55.3169 45.3801 55.9167 46.7021 56.9368 47.6571C55.9167 46.7021 54.5598 46.1924 53.1646 46.24C51.7695 46.2876 50.4503 46.8887 49.4974 47.9111C48.5445 48.9334 48.0358 50.2933 48.0834 51.6915C48.1309 53.0897 48.7307 54.4117 49.7508 55.3667C49.253 54.8609 48.6583 54.4612 48.0025 54.1915C47.3467 53.9219 46.6432 53.7879 45.9344 53.7975C45.2256 53.8072 44.526 53.9604 43.8778 54.2478C43.2295 54.5353 42.6459 54.9511 42.162 55.4703C41.6782 55.9894 41.304 56.6013 41.062 57.269C40.8201 57.9368 40.7153 58.6467 40.7539 59.356C40.7926 60.0654 40.974 60.7596 41.2871 61.397C41.6002 62.0343 42.0387 62.6017 42.5761 63.0649L54.9657 74.6349L48.6583 74.2059C47.2663 74.1116 45.8938 74.5754 44.843 75.4952C43.7921 76.4149 43.1489 77.7154 43.0548 79.1105C42.9607 80.5055 43.4234 81.8809 44.3412 82.9341C45.259 83.9872 46.5567 84.6318 47.9487 84.7261L66.5894 85.9903L68.6956 86.2613C97.9801 109.966 141.164 138.422 143.281 139.81L166.067 104.886Z" fill="#FFC1C1"/>
<path d="M59.5377 66.3832C59.057 66.386 58.5936 66.2043 58.2424 65.8753L49.4683 57.6578C49.1009 57.315 48.8844 56.84 48.8664 56.3372C48.8485 55.8345 49.0306 55.3452 49.3726 54.977C49.7146 54.6087 50.1886 54.3918 50.6903 54.3738C51.1919 54.3558 51.6802 54.5382 52.0476 54.881L60.8217 63.0985C61.0997 63.3577 61.2934 63.6946 61.3778 64.0656C61.4621 64.4365 61.4332 64.8244 61.2947 65.1786C61.1562 65.5329 60.9146 65.8372 60.6013 66.052C60.2879 66.2669 59.9173 66.3823 59.5377 66.3832Z" fill="#1F1F1F"/>
<path d="M66.7018 58.7304C66.2215 58.7309 65.7589 58.5495 65.4065 58.2225L56.6324 50.005C56.265 49.6622 56.0485 49.1872 56.0305 48.6844C56.0126 48.1817 56.1946 47.6924 56.5367 47.3241C56.8787 46.9559 57.3527 46.7389 57.8543 46.7209C58.356 46.7029 58.8443 46.8854 59.2117 47.2282L67.997 55.4457C68.2757 55.7055 68.4697 56.0435 68.5537 56.4155C68.6377 56.7875 68.6078 57.1763 68.468 57.531C68.3281 57.8858 68.0847 58.19 67.7696 58.404C67.4545 58.6179 67.0824 58.7317 66.7018 58.7304Z" fill="#1F1F1F"/>
<path d="M73.864 51.0433C73.384 51.0427 72.9217 50.8614 72.5688 50.5354L63.7947 42.3179C63.4272 41.9736 63.2113 41.4972 63.1944 40.9934C63.1775 40.4895 63.361 39.9996 63.7046 39.6314C64.0481 39.2632 64.5235 39.0468 65.0262 39.0299C65.529 39.0129 66.0178 39.1968 66.3852 39.5411L75.1706 47.7586C75.4492 48.0184 75.6432 48.3564 75.7273 48.7284C75.8113 49.1005 75.7814 49.4892 75.6415 49.844C75.5016 50.1987 75.2582 50.5029 74.9431 50.7169C74.628 50.9309 74.2559 51.0446 73.8753 51.0433H73.864Z" fill="#1F1F1F"/>
<path d="M236.539 140.284C224.555 133.026 185.449 108.916 185.449 108.916C185.618 108.114 144.834 82.7282 136.296 77.6148C135.625 77.2175 134.85 77.03 134.072 77.0762C133.293 77.1225 132.546 77.4004 131.926 77.8744L91.9753 108.351C91.4667 108.74 91.0608 109.248 90.7931 109.831C90.5255 110.413 90.4041 111.052 90.4396 111.692C90.4752 112.333 90.6666 112.954 90.9971 113.503C91.3276 114.052 91.7872 114.512 92.3357 114.842L117.712 130.069L106.798 135.916L99.6005 139.788L97.9448 140.68L91.0967 144.371L184.064 228.464L187.037 221.274L187.758 219.513L190.732 212.221L201.995 184.702L205.137 186.09C210.742 189.502 216.545 192.574 222.517 195.29C229.522 198.486 236.74 201.19 244.119 203.383L245.246 203.902C245.679 204.103 246.151 204.209 246.628 204.213C247.106 204.218 247.579 204.121 248.016 203.929C248.453 203.737 248.845 203.454 249.166 203.099C249.486 202.745 249.728 202.326 249.875 201.87C253.682 190.741 262.625 156.099 236.539 140.284Z" fill="#D90000"/>
<path d="M277.911 97.5037C277.46 94.6479 274.104 92.8192 270.364 93.3159C270.254 91.3574 270.043 89.4058 269.734 87.4688C267.493 73.3655 260.233 60.552 249.296 51.3967C238.36 42.2415 224.486 37.3635 210.239 37.6645C195.992 37.9655 182.335 43.425 171.793 53.034C161.252 62.643 154.537 75.7517 152.891 89.9372C151.245 104.123 154.779 118.426 162.839 130.203C170.9 141.979 182.942 150.434 196.739 154.003C210.537 157.573 225.158 156.015 237.899 149.62C250.64 143.224 260.64 132.422 266.051 119.21C266.253 118.713 265.51 117.427 265.701 116.952C265.961 116.264 267.154 116.343 267.391 115.643C268.666 111.853 269.549 107.942 270.027 103.972C270.625 104.003 271.225 103.972 271.817 103.881C275.658 103.272 278.418 100.416 277.911 97.5037Z" fill="#FFC1C1"/>
<path d="M269.8 33.9989C265.554 18.4105 255.158 7.67582 246.53 10.0237C242.655 11.0847 239.828 14.6065 238.251 19.5731C237.688 18.6249 237.125 17.6768 236.472 16.7512C227.394 3.38647 214.058 -3.36361 206.681 1.67073C203.696 3.70253 202.175 7.31461 201.984 11.8297C190.529 2.56246 177.43 -0.0450098 171.809 6.18583C168.352 10.0124 168.521 16.3448 171.573 23.1175C158.057 17.6203 144.879 18.8846 141.286 26.3796C138.695 31.7865 141.748 39.0445 148.404 45.3544C135.204 46.2009 125.022 52.127 124.594 59.8591C124.233 66.4173 130.946 72.4337 140.903 75.5266C129.077 80.1432 121.451 88.4059 123.163 95.7429C124.875 103.08 135.069 107.031 147.481 106.071C140.34 115.338 138.144 125.339 142.852 130.645C148.765 137.338 163.351 134.031 175.414 123.353C179.235 119.996 182.501 116.053 185.089 111.67C195.736 104.995 204.293 95.4502 209.778 84.1278C212.715 77.9155 214.646 71.2742 215.5 64.4532C222.381 66.2923 229.43 67.4269 236.539 67.8396C252.071 68.7539 260.846 66.7108 261.882 66.4286C270.498 64.1259 274.035 49.5873 269.8 33.9989Z" fill="#1F1F1F"/>
<path d="M241.698 77.6708C242.148 79.3301 239.558 81.4861 235.92 82.4794C232.282 83.4727 228.97 82.9309 228.52 81.2716C228.069 79.6123 230.649 77.4564 234.287 76.463C237.925 75.4697 241.236 76.0115 241.698 77.6708Z" fill="#1F1F1F"/>
<path d="M233.903 101.082C233 98.5978 232.876 95.8967 233.546 93.3399C234.217 90.783 235.65 88.4922 237.655 86.7739C239.66 85.0557 242.141 83.9918 244.765 83.7247C247.389 83.4575 250.033 83.9998 252.341 85.279C255.105 86.7871 257.218 89.2623 258.277 92.2323C259.409 95.382 259.285 98.8482 257.929 101.908C256.574 104.968 254.092 107.385 251.001 108.656C250.836 108.732 250.666 108.8 250.494 108.859C247.265 110.029 243.704 109.867 240.594 108.409C237.483 106.951 235.077 104.316 233.903 101.082Z" fill="white"/>
<path d="M245.055 101.725C243.927 98.5757 244.055 95.1111 245.413 92.0536C246.77 88.9961 249.253 86.5816 252.343 85.313C255.107 86.8211 257.22 89.2963 258.278 92.2662C259.411 95.416 259.286 98.8822 257.931 101.942C256.575 105.002 254.093 107.419 251.002 108.69C248.235 107.178 246.118 104.699 245.055 101.725Z" fill="#1F1F1F"/>
<path d="M267.412 115.609C267.018 116.828 266.568 118.036 266.095 119.221C263.252 117.743 261.042 115.28 259.877 112.29C259.786 112.058 259.742 111.811 259.746 111.562C259.751 111.312 259.804 111.067 259.904 110.838C260.003 110.61 260.146 110.403 260.325 110.23C260.505 110.057 260.716 109.921 260.947 109.83C261.179 109.739 261.426 109.694 261.675 109.699C261.923 109.703 262.169 109.757 262.397 109.856C262.625 109.956 262.831 110.099 263.003 110.279C263.176 110.458 263.312 110.67 263.403 110.902C264.17 112.88 265.584 114.539 267.412 115.609Z" fill="#1F1F1F"/>
<path d="M206.139 115.379C211.284 108.345 209.767 98.4632 202.749 93.3061C195.73 88.149 185.87 89.6701 180.724 96.7034C175.578 103.737 177.096 113.619 184.114 118.776C191.132 123.933 200.993 122.412 206.139 115.379Z" fill="#FFC1C1"/>
<path d="M192.433 115.654C190.577 115.608 188.776 115.009 187.26 113.936C185.744 112.862 184.58 111.361 183.916 109.623C183.252 107.885 183.119 105.989 183.532 104.175C183.946 102.361 184.887 100.71 186.238 99.4338C188.056 97.7426 190.46 96.8276 192.94 96.8827C193.418 96.9261 193.862 97.1489 194.183 97.5064C194.504 97.864 194.678 98.3299 194.671 98.8109C194.664 99.2918 194.476 99.7524 194.145 100.1C193.813 100.448 193.363 100.658 192.883 100.687H192.658C191.304 100.848 190.054 101.496 189.141 102.511C188.227 103.526 187.712 104.839 187.692 106.206C187.671 107.572 188.146 108.9 189.028 109.942C189.911 110.985 191.14 111.671 192.489 111.873C192.991 111.88 193.469 112.087 193.819 112.448C194.169 112.809 194.361 113.294 194.353 113.797C194.346 114.3 194.139 114.78 193.779 115.13C193.419 115.48 192.935 115.673 192.433 115.666V115.654Z" fill="#1F1F1F"/>
<path d="M244.121 203.394C240.991 210.234 236.341 216.265 230.526 221.025C221.337 228.238 209.972 232.099 198.302 231.975C196.043 231.976 193.786 231.837 191.544 231.557C176.449 229.659 162.659 222.021 153.023 210.223L152.359 209.388L151.796 208.665C151.582 208.417 151.413 208.135 151.221 207.864L138.933 191.282C138.162 190.16 137.856 188.781 138.079 187.437C138.302 186.093 139.037 184.888 140.129 184.076C141.221 183.264 142.585 182.908 143.933 183.084C145.282 183.259 146.509 183.953 147.358 185.018C146.584 183.893 146.276 182.512 146.498 181.165C146.72 179.818 147.456 178.609 148.549 177.795C149.642 176.98 151.009 176.622 152.36 176.796C153.711 176.971 154.943 177.664 155.794 178.73C155.023 177.608 154.717 176.229 154.94 174.885C155.163 173.541 155.898 172.336 156.99 171.524C158.082 170.712 159.446 170.356 160.794 170.532C162.143 170.707 163.371 171.401 164.219 172.466C163.389 171.346 163.036 169.942 163.239 168.561C163.442 167.181 164.183 165.938 165.3 165.106C166.418 164.274 167.819 163.92 169.196 164.124C170.573 164.327 171.814 165.07 172.644 166.19L179.807 175.874V170.603C179.774 169.878 179.888 169.153 180.142 168.473C180.396 167.792 180.786 167.171 181.286 166.646C181.787 166.12 182.388 165.702 183.055 165.417C183.721 165.131 184.438 164.984 185.163 164.984C185.888 164.984 186.605 165.131 187.271 165.417C187.938 165.702 188.539 166.12 189.04 166.646C189.541 167.171 189.93 167.792 190.184 168.473C190.438 169.153 190.552 169.878 190.519 170.603V187.117C192.401 188.23 194.49 188.948 196.657 189.228C200.138 189.634 202.661 188.742 203.764 187.851C204.325 187.377 204.788 186.798 205.127 186.146L244.121 203.394Z" fill="#FFC1C1"/>
<path d="M164.15 191.779C163.85 191.78 163.555 191.709 163.288 191.571C163.021 191.434 162.792 191.234 162.618 190.989L155.207 180.706C154.915 180.297 154.796 179.788 154.876 179.291C154.956 178.794 155.229 178.349 155.635 178.053C155.836 177.905 156.065 177.799 156.307 177.74C156.55 177.682 156.802 177.672 157.048 177.712C157.295 177.752 157.53 177.841 157.742 177.973C157.954 178.105 158.138 178.278 158.282 178.482L165.693 188.765C165.985 189.175 166.104 189.683 166.024 190.18C165.944 190.677 165.671 191.122 165.265 191.418C164.939 191.65 164.55 191.776 164.15 191.779Z" fill="#1F1F1F"/>
<path d="M172.452 185.616C172.152 185.617 171.857 185.546 171.59 185.408C171.323 185.271 171.094 185.071 170.92 184.826L163.509 174.543C163.21 174.134 163.086 173.623 163.163 173.123C163.24 172.622 163.512 172.173 163.92 171.873C164.328 171.574 164.838 171.449 165.337 171.526C165.837 171.604 166.285 171.877 166.584 172.285L173.984 182.568C174.19 182.851 174.314 183.186 174.341 183.535C174.369 183.884 174.3 184.234 174.141 184.547C173.983 184.859 173.741 185.121 173.443 185.303C173.144 185.486 172.802 185.583 172.452 185.582V185.616Z" fill="#1F1F1F"/>
<path d="M155.906 197.942C155.605 197.94 155.309 197.868 155.041 197.731C154.773 197.594 154.541 197.395 154.363 197.152L146.963 186.858C146.665 186.45 146.539 185.941 146.615 185.441C146.692 184.942 146.963 184.493 147.369 184.194C147.775 183.894 148.283 183.769 148.782 183.845C149.28 183.921 149.728 184.193 150.027 184.6L157.438 194.894C157.73 195.304 157.849 195.812 157.769 196.309C157.689 196.806 157.416 197.251 157.01 197.547C156.692 197.79 156.306 197.928 155.906 197.942Z" fill="#1F1F1F"/>
<path d="M84.227 322.875H97.788L91.0075 334.648L84.227 346.421L77.4465 334.648L70.666 322.875H84.227Z" fill="#2A63E8"/>
<path d="M84.2276 355C90.0812 355 94.8264 350.244 94.8264 344.378C94.8264 338.512 90.0812 333.756 84.2276 333.756C78.3741 333.756 73.6289 338.512 73.6289 344.378C73.6289 350.244 78.3741 355 84.2276 355Z" fill="#1F1F1F"/>
<path d="M84.2267 349.458C87.0259 349.458 89.2951 347.184 89.2951 344.378C89.2951 341.573 87.0259 339.299 84.2267 339.299C81.4274 339.299 79.1582 341.573 79.1582 344.378C79.1582 347.184 81.4274 349.458 84.2267 349.458Z" fill="#FFCC00"/>
<path d="M193.233 322.875H206.794L200.013 334.648L193.233 346.421L186.452 334.648L179.672 322.875H193.233Z" fill="#2A63E8"/>
<path d="M193.234 355C199.087 355 203.832 350.244 203.832 344.378C203.832 338.512 199.087 333.756 193.234 333.756C187.38 333.756 182.635 338.512 182.635 344.378C182.635 350.244 187.38 355 193.234 355Z" fill="#1F1F1F"/>
<path d="M193.233 349.458C196.032 349.458 198.301 347.184 198.301 344.378C198.301 341.573 196.032 339.299 193.233 339.299C190.433 339.299 188.164 341.573 188.164 344.378C188.164 347.184 190.433 349.458 193.233 349.458Z" fill="#FFCC00"/>
<path d="M204.823 330.663H72.649C66.9471 330.669 61.2902 329.652 55.9456 327.661L47.6446 324.591C46.5148 324.118 45.6111 323.226 45.1225 322.101C44.634 320.977 44.5984 319.706 45.0233 318.555C45.4482 317.405 46.3006 316.464 47.4021 315.928C48.5037 315.393 49.769 315.306 50.9334 315.685L59.2345 318.766C63.5273 320.362 68.0703 321.176 72.649 321.17H204.823C209.399 321.176 213.938 320.362 218.227 318.766L226.528 315.685C227.692 315.306 228.958 315.393 230.059 315.928C231.161 316.464 232.013 317.405 232.438 318.555C232.863 319.706 232.827 320.977 232.339 322.101C231.85 323.226 230.946 324.118 229.817 324.591L221.516 327.661C216.175 329.652 210.522 330.669 204.823 330.663Z" fill="#D90000"/>
<path d="M218.034 318.812V328.801C216.784 329.162 215.534 329.467 214.25 329.716V320.008C215.535 319.69 216.799 319.29 218.034 318.812Z" fill="#FFC1C1"/>
<path d="M198.695 321.17H194.91V330.663H198.695V321.17Z" fill="#FFC1C1"/>
<path d="M179.333 321.17H175.549V330.663H179.333V321.17Z" fill="#FFC1C1"/>
<path d="M159.972 321.17H156.188V330.663H159.972V321.17Z" fill="#FFC1C1"/>
<path d="M140.611 321.17H136.826V330.663H140.611V321.17Z" fill="#FFC1C1"/>
<path d="M121.271 321.17H117.486V330.663H121.271V321.17Z" fill="#FFC1C1"/>
<path d="M101.909 321.17H98.125V330.663H101.909V321.17Z" fill="#FFC1C1"/>
<path d="M82.5598 321.17H78.7754V330.663H82.5598V321.17Z" fill="#FFC1C1"/>
<path d="M63.1985 319.997V329.716C61.9145 329.467 60.6643 329.162 59.4141 328.801V318.812C60.6504 319.283 61.9143 319.679 63.1985 319.997Z" fill="#FFC1C1"/>
</g>
<defs>
<clipPath id="clip0_42388_12696">
<rect width="278" height="355" fill="white"/>
</clipPath>
</defs>
</svg>
