<svg width="137" height="137" viewBox="0 0 137 137" fill="none" xmlns="http://www.w3.org/2000/svg">
<g clip-path="url(#clip0_42388_12856)">
<path d="M90.0979 116.226C83.525 118.748 78.9941 124.272 77.4577 130.634C74.446 125.564 69.2782 121.829 63.0016 120.834C56.0442 119.726 49.3487 122.248 44.8443 126.995C44.7657 121.105 42.173 115.283 37.2321 111.286C31.7588 106.853 24.7053 105.701 18.42 107.551C21.3095 102.411 21.9642 96.0752 19.6946 90.1406C17.1718 83.5693 11.6373 79.04 5.27344 77.5127C10.3453 74.5018 14.0902 69.3441 15.0854 63.0694C16.194 56.1226 13.6713 49.4289 8.91365 44.9345C14.8148 44.856 20.6374 42.264 24.6442 37.3245C29.0788 31.8613 30.2398 24.8099 28.3804 18.5351C33.5308 21.415 39.8685 22.0783 45.8045 19.8005C52.3778 17.2784 56.9172 11.7541 58.4448 5.39209C61.4565 10.4626 66.6244 14.1977 72.9009 15.1926C79.8584 16.2922 86.5541 13.7788 91.0586 9.03129C91.137 14.922 93.7298 20.7431 98.6706 24.7488C104.144 29.1821 111.198 30.3428 117.483 28.4752C114.602 33.6155 113.938 39.9514 116.217 45.8857C118.739 52.4573 124.274 56.9866 130.638 58.5138C125.566 61.5247 121.821 66.6824 120.817 72.9572C119.717 79.9039 122.231 86.5887 126.989 91.0924C121.096 91.1707 115.265 93.7627 111.258 98.7019C106.824 104.174 105.663 111.217 107.522 117.492C102.372 114.612 96.0341 113.949 90.089 116.226H90.0979Z" fill="#FFCC00"/>
<path d="M67.9513 107.194C89.5986 107.194 107.147 89.6505 107.147 68.0093C107.147 46.3682 89.5986 28.8247 67.9513 28.8247C46.3042 28.8247 28.7559 46.3682 28.7559 68.0093C28.7559 89.6505 46.3042 107.194 67.9513 107.194Z" fill="#D90000"/>
<path d="M58.4357 5.38273C61.4473 10.4532 66.6152 14.1883 72.8917 15.1832C73.9828 15.3578 75.0653 15.4363 76.139 15.4363C81.8915 15.4363 87.2517 13.0189 91.0492 9.01321C91.1275 14.904 93.7204 20.7249 98.6612 24.7306C102.468 27.8113 107.042 29.3124 111.59 29.3124C113.58 29.3124 115.562 29.0244 117.473 28.4571C114.592 33.5974 113.929 39.9332 116.207 45.8677C118.731 52.4391 124.264 56.9685 130.629 58.4958C125.556 61.5065 121.811 66.6643 120.808 72.9391C119.708 79.8858 122.222 86.5711 126.979 91.074C121.087 91.1523 115.256 93.7443 111.25 98.6843C106.815 104.156 105.653 111.198 107.513 117.473C104.467 115.763 100.992 114.838 97.4387 114.838C94.9945 114.838 92.5068 115.274 90.0804 116.199C83.5067 118.721 78.9762 124.246 77.4398 130.608C74.4281 125.537 69.2602 121.802 62.9836 120.807C61.8925 120.632 60.8013 120.545 59.7275 120.545C53.9748 120.545 48.6236 122.963 44.8263 126.969C44.7477 121.078 42.1551 115.257 37.2142 111.26C33.4081 108.17 28.8339 106.678 24.2859 106.678C22.2955 106.678 20.3139 106.966 18.4021 107.533C21.2916 102.393 21.9463 96.0568 19.6766 90.123C17.1538 83.5508 11.6193 79.0218 5.25552 77.4945C10.3273 74.4838 14.0723 69.326 15.0674 63.0512C16.1761 56.1045 13.6533 49.4108 8.89567 44.9164C14.7968 44.8379 20.6195 42.2459 24.6263 37.3064C29.0609 31.8432 30.2219 24.7917 28.3624 18.517C31.4091 20.2275 34.8747 21.1526 38.4363 21.1526C40.8806 21.1526 43.3685 20.7162 45.7954 19.7824C52.3686 17.2603 56.9079 11.736 58.4357 5.374M58.4444 0.146484C58.1824 0.146484 57.9206 0.163918 57.6587 0.207554C55.5549 0.530456 53.8439 2.0926 53.3464 4.16092C52.1678 9.07429 48.6412 13.0975 43.9272 14.904C42.1638 15.576 40.3131 15.925 38.4451 15.925C35.8262 15.925 33.2335 15.2443 30.9377 13.9614C30.1346 13.5163 29.2529 13.2895 28.38 13.2895C27.2189 13.2895 26.0579 13.6735 25.1064 14.4327C23.4391 15.7592 22.7494 17.9672 23.3517 20.0093C24.7921 24.8615 23.7533 30.0978 20.5758 34.0163C17.7038 37.5595 13.4263 39.6278 8.84332 39.6889C6.71333 39.715 4.8103 41.0329 4.03336 43.0139C3.25644 44.995 3.76277 47.2553 5.30789 48.7214C8.98302 52.2035 10.7027 57.2477 9.90832 62.2309C9.19253 66.7428 6.52125 70.6613 2.59298 73.0002C0.759783 74.091 -0.235376 76.1768 0.0876155 78.2887C0.410608 80.392 1.97321 82.1021 4.04211 82.5999C8.96556 83.7779 12.9899 87.3039 14.7968 92.0161C16.4293 96.2749 16.0801 101.006 13.8453 104.985C12.8065 106.843 12.9898 109.148 14.3167 110.815C15.3293 112.08 16.8482 112.787 18.4109 112.787C18.9084 112.787 19.406 112.717 19.8949 112.569C21.3177 112.15 22.8018 111.932 24.2859 111.932C27.83 111.932 31.1559 113.11 33.9144 115.344C37.4673 118.215 39.5363 122.483 39.5886 127.056C39.6148 129.185 40.9329 131.088 42.9145 131.864C43.5343 132.109 44.1803 132.222 44.8263 132.222C46.2405 132.222 47.6198 131.655 48.6237 130.59C51.5131 127.545 55.5549 125.807 59.7275 125.807C60.5307 125.807 61.3513 125.869 62.1544 126C66.6675 126.716 70.5958 129.377 72.9353 133.304C73.8868 134.91 75.6066 135.861 77.4398 135.861C77.7017 135.861 77.9635 135.844 78.2254 135.801C80.3292 135.477 82.0313 133.916 82.5379 131.847C83.7248 126.925 87.2428 122.91 91.9565 121.104C93.7204 120.432 95.5706 120.083 97.4387 120.083C100.058 120.083 102.659 120.763 104.955 122.046C105.758 122.492 106.631 122.71 107.513 122.71C108.674 122.71 109.835 122.326 110.787 121.566C112.453 120.24 113.143 118.031 112.533 115.99C111.092 111.138 112.131 105.901 115.308 101.983C118.18 98.4395 122.458 96.3711 127.032 96.3186C129.162 96.2927 131.065 94.9749 131.842 92.9937C132.619 91.0126 132.112 88.7526 130.568 87.2861C126.892 83.8046 125.173 78.7513 125.967 73.7681C126.683 69.2649 129.354 65.3377 133.282 63.0076C135.116 61.9167 136.102 59.8309 135.788 57.719C135.474 55.6071 133.902 53.9053 131.834 53.4078C126.91 52.221 122.885 48.704 121.079 44.0001C119.463 39.7849 119.787 35.0984 121.96 31.1363C122.423 30.3509 122.694 29.4433 122.694 28.4658C122.694 25.6382 120.45 23.3344 117.648 23.2296C117.587 23.2296 117.517 23.2296 117.456 23.2296C117.325 23.2296 117.194 23.2296 117.054 23.2471C116.644 23.282 116.242 23.3605 115.867 23.474C114.47 23.8754 113.03 24.0849 111.572 24.0849C108.028 24.0849 104.702 22.9067 101.943 20.6725C98.3994 17.8014 96.3301 13.5338 96.2695 8.95213C96.2429 6.82269 94.9251 4.92019 92.9431 4.14348C92.3234 3.89912 91.6778 3.78566 91.0403 3.78566C89.6263 3.78566 88.2471 4.35292 87.2428 5.41762C84.3534 8.46338 80.303 10.2088 76.139 10.2088C75.3359 10.2088 74.5154 10.1477 73.7122 10.0168C69.1991 9.30118 65.2708 6.63943 62.9313 2.70352C61.9798 1.09773 60.2601 0.146484 58.4269 0.146484H58.4444Z" fill="white"/>
</g>
<defs>
<clipPath id="clip0_42388_12856">
<rect width="136.549" height="136.549" fill="white"/>
</clipPath>
</defs>
</svg>
